<?xml version="1.0" encoding="UTF-8"?>
<svg id="Layer_1" data-name="Layer 1" xmlns="http://www.w3.org/2000/svg" xmlns:xlink="http://www.w3.org/1999/xlink" viewBox="0 0 568 128">
  <defs>
    <style>
      .cls-1 {
        fill: url(#linear-gradient);
      }

      .cls-1, .cls-2, .cls-3, .cls-4, .cls-5, .cls-6, .cls-7, .cls-8, .cls-9 {
        stroke-width: 0px;
      }

      .cls-2 {
        fill: #0d361c;
      }

      .cls-3 {
        fill: #54284e;
      }

      .cls-4 {
        fill: #636569;
      }

      .cls-5 {
        fill: url(#linear-gradient-4);
      }

      .cls-6 {
        fill: url(#linear-gradient-2);
      }

      .cls-7 {
        fill: url(#linear-gradient-3);
      }

      .cls-8 {
        fill: url(#linear-gradient-5);
      }

      .cls-9 {
        fill: url(#linear-gradient-6);
      }
    </style>
    <linearGradient id="linear-gradient" x1="95.17" y1="55.82" x2="118.78" y2="62.59" gradientUnits="userSpaceOnUse">
      <stop offset="0" stop-color="#ac6244"/>
      <stop offset=".49" stop-color="#8d2700"/>
      <stop offset=".63" stop-color="#8e2a03"/>
      <stop offset=".75" stop-color="#93330e"/>
      <stop offset=".87" stop-color="#9c4320"/>
      <stop offset=".98" stop-color="#a75a3a"/>
      <stop offset="1" stop-color="#aa5e3f"/>
    </linearGradient>
    <linearGradient id="linear-gradient-2" x1="-338.33" y1="330.29" x2="-281.47" y2="348.77" gradientTransform="translate(375.14 -284.48) rotate(3.35)" gradientUnits="userSpaceOnUse">
      <stop offset="0" stop-color="#8e006d"/>
      <stop offset=".04" stop-color="#ad006d"/>
      <stop offset=".08" stop-color="#c4006d"/>
      <stop offset=".11" stop-color="#d2006d"/>
      <stop offset=".14" stop-color="#d7006d"/>
      <stop offset=".17" stop-color="#d8066f"/>
      <stop offset=".2" stop-color="#db1778"/>
      <stop offset=".24" stop-color="#e03386"/>
      <stop offset=".28" stop-color="#e85a99"/>
      <stop offset=".32" stop-color="#f28bb2"/>
      <stop offset=".33" stop-color="#f291b6"/>
      <stop offset=".34" stop-color="#f398ba"/>
      <stop offset=".37" stop-color="#f49abc"/>
      <stop offset=".41" stop-color="#f17aaf"/>
      <stop offset=".48" stop-color="#ee469b"/>
      <stop offset=".54" stop-color="#ec1f8c"/>
      <stop offset=".59" stop-color="#ea0883"/>
      <stop offset=".62" stop-color="#ea0080"/>
      <stop offset=".69" stop-color="#e0007d"/>
      <stop offset=".81" stop-color="#c50078"/>
      <stop offset=".96" stop-color="#9a006f"/>
      <stop offset="1" stop-color="#8e006d"/>
    </linearGradient>
    <linearGradient id="linear-gradient-3" x1="1.77" y1="80.67" x2="17.5" y2="80.67" gradientUnits="userSpaceOnUse">
      <stop offset="0" stop-color="#003824"/>
      <stop offset="1" stop-color="#00822c"/>
    </linearGradient>
    <linearGradient id="linear-gradient-4" x1="-343.95" y1="401.9" x2="-287.87" y2="434.28" gradientTransform="translate(375.14 -284.48) rotate(3.35)" gradientUnits="userSpaceOnUse">
      <stop offset="0" stop-color="#003824"/>
      <stop offset=".51" stop-color="#109840"/>
      <stop offset=".72" stop-color="#0d933c"/>
      <stop offset=".93" stop-color="#048731"/>
      <stop offset="1" stop-color="#00822c"/>
    </linearGradient>
    <linearGradient id="linear-gradient-5" x1="-317.28" y1="352.61" x2="-237.54" y2="369.48" gradientTransform="translate(375.14 -284.48) rotate(3.35)" gradientUnits="userSpaceOnUse">
      <stop offset=".16" stop-color="#8d2719"/>
      <stop offset=".22" stop-color="#9a381b"/>
      <stop offset=".34" stop-color="#be6622"/>
      <stop offset=".51" stop-color="#f5ad2c"/>
      <stop offset=".65" stop-color="#f5ad2c"/>
      <stop offset=".69" stop-color="#f1a32b"/>
      <stop offset=".77" stop-color="#e9892a"/>
      <stop offset=".86" stop-color="#db5f28"/>
      <stop offset=".93" stop-color="#d03c27"/>
    </linearGradient>
    <linearGradient id="linear-gradient-6" x1="1.49" y1="80.94" x2="83.13" y2="101.29" gradientUnits="userSpaceOnUse">
      <stop offset="0" stop-color="#005d33"/>
      <stop offset=".02" stop-color="#096238"/>
      <stop offset=".06" stop-color="#227248"/>
      <stop offset=".11" stop-color="#4c8d62"/>
      <stop offset=".17" stop-color="#85b185"/>
      <stop offset=".21" stop-color="#b2cda1"/>
      <stop offset=".25" stop-color="#b2cda1"/>
      <stop offset=".3" stop-color="#73bb7a"/>
      <stop offset=".35" stop-color="#41ac5b"/>
      <stop offset=".4" stop-color="#1da245"/>
      <stop offset=".43" stop-color="#079c37"/>
      <stop offset=".46" stop-color="#009a33"/>
      <stop offset=".87" stop-color="#005d33"/>
    </linearGradient>
  </defs>
  <g>
    <path class="cls-4" d="M201.1,89.82h-45.97l-11.86,26.53h-9.78l39.61-87.29h10.51l39.61,87.29h-10.51l-11.61-26.53ZM178.24,38.11l-19.44,43.4h38.63l-19.19-43.4Z"/>
    <path class="cls-4" d="M227.38,28.33h9.05v55.38l38.75-30.93h13.45l-31.17,24.08,33.5,39.49h-11.98l-28.24-33.62-14.3,10.88v22.74h-9.05V28.33Z"/>
    <path class="cls-4" d="M354.76,96.06c-3.67,11.25-13.2,22.25-34.23,22.25-26.04,0-34.6-18.22-34.6-33.74,0-17.73,10.88-33.74,34.6-33.74,16.38,0,35.82,7.09,35.82,35.94h-61.37c0,13.2,9.41,23.96,25.55,23.96,15.16,0,22.01-5.01,25.18-14.67h9.05ZM347.3,79.92c-2.57-15.65-14.06-21.52-26.16-21.52s-24.08,5.99-26.16,21.52h52.32Z"/>
    <path class="cls-4" d="M365.27,52.78h9.05v14.55h.24c3.3-7.58,9.29-16.5,24.33-16.5,2.57,0,4.03.24,5.38.49v9.29c-2.81-.49-5.5-.73-8.31-.73-9.78,0-21.64,5.99-21.64,24.08v32.4h-9.05v-63.57Z"/>
    <path class="cls-4" d="M409.53,29.06h49.63c17.12,0,24.33,9.66,24.33,22.01,0,8.44-4.65,16.26-15.04,18.71v.24c11.49,1.71,18.46,10.15,18.46,21.39,0,18.22-15.4,24.94-28.85,24.94h-48.54V29.06ZM418.57,66.96h35.82c12.23,0,20.05-3.91,20.05-15.53,0-10.64-7.09-14.06-16.99-14.06h-38.88v29.58ZM418.57,108.04h38.02c11.74,0,20.54-4.65,20.54-16.63,0-12.59-7.82-16.14-18.34-16.14h-40.22v32.76Z"/>
    <path class="cls-4" d="M494.61,29.06h47.07c13.45,0,26.28,6.72,26.28,25.18,0,16.5-10.88,25.43-30.32,25.43h-33.99v36.68h-9.05V29.06ZM503.66,71.36h34.96c15.16,0,19.56-6.97,19.56-17.12,0-13.08-7.33-16.87-17.73-16.87h-36.8v33.99Z"/>
  </g>
  <g>
    <path class="cls-1" d="M119.76,53.52c.23-1.54.42-2.84.58-3.96,0,.03-.01.06-.02.08-.74,3.95-4.42,1.77-5.89.79-7.65-5.1-19.45-10.17-17.1,3.47,2.19,12.73,18.03,18.29,17.84,21.13.75-2.15,2.8-9.79,4.48-20.81l.11-.7Z"/>
    <g>
      <path class="cls-3" d="M27.6,6.57c-.47.84.25,1.67,1.45,2.78,3.51-2.95.13-5.16-1.31-3.01l-.14.23Z"/>
      <g>
        <path class="cls-3" d="M24.16,31.44c-1.41-2.54-2.69-5.55-2.17-8.44-1.53,1.64-2.91,3.62-4.05,6.05-.47,1-.47,2.09,6.22,2.39Z"/>
        <g>
          <path class="cls-3" d="M15.43,43.12c-.33-2.3-2.49-3.54-3.24-2.02h0s0,0,0,0c-.36.78-.18,2.62,3.03,3.94.2-.68.29-1.34.21-1.92Z"/>
          <path class="cls-6" d="M71.38,47.96c-1.46-1.96-3.69-3.78-6.4-5.45-10.98-6.76-29.83-10.92-37.7-10.99-1.18,0-2.21-.04-3.12-.08-6.69-.3-6.69-1.39-6.22-2.39,1.14-2.43,2.52-4.41,4.05-6.05,4.75-5.1,10.94-6.88,15.69-8.21,6.27-1.76,16.77-7.67,7.66-12.54-9.11-4.86-14.72-.53-15.73.85-1.01,1.38-2.02,3.48-2.02,3.48.04-.08.09-.16.14-.23,1.44-2.15,4.82.06,1.31,3.01-.06.05-.11.1-.18.15-3.93,3.13-8.09,10.2-10.4,15.42-3.15,7.12-6.27,16.18-6.27,16.18h0c.75-1.52,2.91-.28,3.24,2.02.08.58-.01,1.24-.21,1.92-.38,1.32-1.16,2.75-1.86,3.89-3.36,5.5,1.72,10.16,6.39,11.1,4.06.81,27.18-1.21,35.5-2.2,1.26-.15,2.19-.28,2.65-.36,3.53-.67,18.29-3.07,13.48-9.51Z"/>
        </g>
      </g>
    </g>
    <g>
      <path class="cls-2" d="M1.78,79.84s.01-.1.02-.15c0,.04-.01.09-.02.15Z"/>
      <path class="cls-7" d="M3.22,87.03c2.88,2.12,7.73,1.37,14.28-.12l-.04-.04c-7.66-8.03-10.24-14.27-13.05-13.84-1.51.23-2.2,4.17-2.6,6.67-.19,4.37.39,6.59,1.42,7.34Z"/>
      <g>
        <path class="cls-5" d="M5.3,102.48c-.25-.07-.48-.14-.71-.21,1.6,3.28,3.83,6.85,6.92,10.65,15.39,18.88,46.09,15.6,53.22,13.14,7.13-2.46,1.54-7.55-2.68-10.11-2.47-1.5-9.39-4.09-18.31-9.16-12.63-.27-27.85-1.38-38.45-4.31Z"/>
        <g>
          <path class="cls-8" d="M108.75,33.06c-4.71.16-17.05.21-32.69,4.58-4.61,1.29-8.22,2.95-11.03,4.81l-.04.06c2.7,1.67,4.93,3.49,6.4,5.45,4.81,6.44-9.95,8.84-13.48,9.51-.46.09-1.39.21-2.65.36h0c-.2,2.05-.04,3.67.05,4.51.36,3.26-1.08,6.66-4.82,7.51-3.74.85-20.69,5.26-20.82,9.03-.05,1.27.54,3.14,1.55,4.99h0c2.14-.4,4.38-.77,6.71-1.07,16.38-2.11,47.28-6.27,49.23.84h0c8.59-3.97,13.94-8.69,17.27-10.29,3.94-1.89,10,3.84,10.75,1.69.2-2.84-15.65-8.4-17.84-21.13-2.35-13.64,9.46-8.57,17.1-3.47,1.47.98,5.14,3.17,5.89-.79,0-.03.01-.06.02-.08.9-6.35.73-6.71,1.11-10.8.46-4.92-8-5.86-12.71-5.7Z"/>
          <path class="cls-9" d="M37.93,82.79c-2.33.3-4.57.67-6.71,1.07-5.16.97-9.75,2.14-13.71,3.04-6.55,1.49-11.39,2.24-14.28.12-1.03-.76-1.61-2.97-1.42-7.34,0,.05-.01.1-.02.15C1.17,83.99-.08,92.63,0,96.27c.08,3.47.77,4.83,4.59,6.01.23.07.46.14.71.21,10.6,2.93,25.82,4.04,38.45,4.31,10.92.23,19.91-.16,22.28-.56,5.13-.85,4.5-4.38,3.78-6.88-.77-2.7-1.44-4.83,2.61-5.83,5.12-1.27,14.26-5.05,14.79-8.66.07-.44.04-.85-.06-1.23-1.95-7.11-32.85-2.96-49.23-.84Z"/>
        </g>
      </g>
    </g>
  </g>
</svg>
