<?xml version="1.0" encoding="UTF-8"?>
<svg id="Layer_1" data-name="Layer 1" xmlns="http://www.w3.org/2000/svg" viewBox="0 0 570 130">
  <defs>
    <style>
      .cls-1 {
        fill: #000;
        stroke-width: 0px;
      }
    </style>
  </defs>
  <path class="cls-1" d="M117.65,31.68c-9.48-1.22-28.65-1.12-51.41,9.13-12.95-5.59-22.97-7.29-28.5-8.15-1.05-.16-1.89-.29-2.4-.4-3.62-.78-5.8-2.64-6.31-4.8-.57-2.4-.05-6.97,12.63-11.27,4.84-1.64,9.57-2.88,11.03-6.19.54-1.23.48-2.56-.2-3.96C49.91.67,43.46.1,40.8.1c-1.06,0-2.13.09-2.85.24-3.63.76-6.56,3.27-7.48,4.81-1.28,2.15-.44,3.49.12,4.37.47.74.43.76.11,1.1-7.5,8.05-13.91,25.11-15.38,29.26s-.2,5.04,1.26,5.62c.75.3.95.38.58,1.57-.46,1.46-1.05,2.37-1.58,3.18-.96,1.47-1.72,2.63-.59,5.49,1.72,4.36,7.8,5.63,16.4,5.94,6.9.24,18.73-.89,23.73-1.6.51,4.61-.05,6.15-.31,6.6-.18.31-.41.43-1.82.78-.31.08-.62.16-.93.24-16.62,4.72-20.23,6.95-21.68,9.88-1.07,2.17-.3,4.15-.07,4.76l.17.56c-1.59.43-7.68,2.4-9.84,2.82-4.28-5.5-8.85-13.63-13.52-12.48-1.41.35-2.59,2.34-2.87,4-.2,1.19-3.8,18.93-3.8,18.93-.68,3.28,1.98,6.93,5.19,7.87l2.11.56c5.97,10.17,16.27,18.68,28.69,22.58,16.63,5.22,34.27.32,35.08-4.04.72-3.87-5.02-8.27-17.51-13.42,4.45.1,8.14.16,9.88.17h.13c4.99,0,8.91-1.61,10.77-4.4,1.29-1.95,1.45-4.31.45-6.64-.54-1.25-.62-1.72-.63-1.88.22-.25,1.44-1.14,8.12-2.64,4.65-1.04,9.71-3.95,10.17-7.95,1.52-.81,1.59-.4,4.26-2.15,2.19-1.43,4.45-2.91,6.42-4.02,2.95-1.67,3.7-1.97,4.91-1.35,2.57,1.31,4.95,1.59,7.09.83,2.68-.96,3.91-3.23,4.32-4.16,2.3-5.29,6.7-34.86,6.7-34.86.65-5.57-3.67-8.31-8.96-8.99ZM38.33,9.79c2.04-1.41.18-3.26-1.45-3.1,1.68-1.7,5.52-3.19,8.91-.74,3.12,2.26-.62,4.19-3.31,4.96-3.91,1.12-5.53,1.66-9.67,4.91,2.85-4.01,2.98-4.27,5.53-6.03ZM30.56,56.11c-6.24.12-9.11-1.33-9.73-2.53.63-.97,1.57-2.42,2.26-4.66.95-3.04.34-5.79-1.67-7.63.65-1.79,3.45-9.39,3.45-9.39,0,0,.76,4,9.15,6.12.7.18,1.61.29,2.76.47,4.82.74,17.85,2.61,27.04,7.18,4.19,2.09,4.98,3.74,4.82,4.49-.19.91-1.27,1.76-3.77,2.61-2.5.84-14.78,3.68-34.32,3.34ZM9.85,79.68c1.19-.84,5.62,7.41,5.62,7.41,0,0-6.73.56-6.76-2.18.29-3.07.49-4.77,1.14-5.23ZM61.62,119.04c1.45,1.02,2.31,2.1,2.2,2.74-.07.44-.69.86-1.67,1.15-1.81.37-13.79,3.87-26.93-2.29-10.37-4.86-13.6-7.74-18.77-13.91,3.53.79,7.72,1.92,10.47,2.26,2.12.26,9.11.85,15.32,1.09,1.67.75,2.9,1.26,4.49,1.87,7.59,2.92,10.87,4.82,14.89,7.09ZM81.58,89.19c-7.62,1.71-10.46,3.03-11.68,5.43-1.1,2.15-.31,4.39.52,6.31.38.89.2,1.35,0,1.66-.81,1.23-3.38,2.05-6.48,2.05h0c-4.22-.02-17.91-.31-27.97-.74-4.77-.21-8.06-.42-9.77-.63-6.83-.85-14.36-2.9-18.55-4.13-.6-.18-1.68-.92-1.46-2.44l1.25-6.15c3.27,5.57,17.19-.34,20.21-1.3,13.34-4.24,35.58-7.76,49.7-6.31,7.54.77,9.99,2.34,10.33,2.9-.2.59-2.19,2.5-6.09,3.38ZM116.61,65.76s-.2,2.26-1.74,1.36c-1.02-.6-3.37-2.22-4.24-2.9-6.7-5.28-11.43-11.09-9.18-15.29,2.84-5.29,8.37-.63,11.67,1.23,1.9,1.07,3.27,2.34,6.02,1.37l-2.55,14.23ZM121.13,41.62l-.76,4.27c-.39,1.48-1.42,2.14-2.76,1.14-14.28-10.75-22.66-2.6-21.66,5.49.97,7.85,6.88,11.95,13.77,17.67.85.7,2.94,1.78,2.3,2.48-.78.86-2.5-.33-3.84-.38-2.71-.1-5.02,1.2-7.25,2.45-2.13,1.2-4.47,2.73-6.73,4.21-1.99,1.3-2.38,1.12-3.81,1.88-2.44-1.59-6.41-2.64-12.08-3.23-12.64-1.3-29.51,1.05-41.35,3.73l-.38-1.21s-.02-.05-.03-.07c.63-.6,3.6-2.46,17.65-6.45.23-.06.46-.12.75-.19,5.18-1.3,7.95-4.09,6.75-14.43,9.04-1.78,13.83-4.13,14.64-7.18.48-1.81-.46-3.74-2.8-5.73-.64-.55-1.31-1.08-2.02-1.62,4.94-2.69,24.01-9.5,43.88-7.53,3,.3,6.15,1.64,5.73,4.69Z"/>
  <g>
    <path class="cls-1" d="M202.71,90.36h-45.97l-11.86,26.53h-9.78l39.61-87.29h10.51l39.61,87.29h-10.51l-11.61-26.53ZM179.85,38.65l-19.44,43.4h38.63l-19.19-43.4Z"/>
    <path class="cls-1" d="M228.99,28.87h9.05v55.38l38.75-30.93h13.45l-31.17,24.08,33.5,39.49h-11.98l-28.24-33.62-14.3,10.88v22.74h-9.05V28.87Z"/>
    <path class="cls-1" d="M356.38,96.6c-3.67,11.25-13.2,22.25-34.23,22.25-26.04,0-34.6-18.22-34.6-33.74,0-17.73,10.88-33.74,34.6-33.74,16.38,0,35.82,7.09,35.82,35.94h-61.37c0,13.2,9.41,23.96,25.55,23.96,15.16,0,22.01-5.01,25.18-14.67h9.05ZM348.92,80.46c-2.57-15.65-14.06-21.52-26.16-21.52s-24.08,5.99-26.16,21.52h52.33Z"/>
    <path class="cls-1" d="M366.89,53.32h9.05v14.55h.24c3.3-7.58,9.29-16.5,24.33-16.5,2.57,0,4.03.24,5.38.49v9.29c-2.81-.49-5.5-.73-8.31-.73-9.78,0-21.64,5.99-21.64,24.08v32.4h-9.05v-63.57Z"/>
    <path class="cls-1" d="M411.14,29.6h49.64c17.12,0,24.33,9.66,24.33,22.01,0,8.44-4.65,16.26-15.04,18.71v.24c11.49,1.71,18.46,10.15,18.46,21.39,0,18.22-15.4,24.94-28.85,24.94h-48.54V29.6ZM420.19,67.5h35.82c12.23,0,20.05-3.91,20.05-15.53,0-10.64-7.09-14.06-16.99-14.06h-38.88v29.59ZM420.19,108.58h38.02c11.74,0,20.54-4.65,20.54-16.63,0-12.59-7.82-16.14-18.34-16.14h-40.22v32.76Z"/>
    <path class="cls-1" d="M496.23,29.6h47.07c13.45,0,26.28,6.72,26.28,25.18,0,16.5-10.88,25.43-30.32,25.43h-33.99v36.68h-9.05V29.6ZM505.28,71.9h34.96c15.16,0,19.56-6.97,19.56-17.12,0-13.08-7.34-16.87-17.73-16.87h-36.8v33.99Z"/>
  </g>
</svg>
